<svg width="666" height="361" viewBox="0 0 666 361" fill="none" xmlns="http://www.w3.org/2000/svg">
<g clip-path="url(#clip0_1_12)">
<path fill-rule="evenodd" clip-rule="evenodd" d="M331.94 28.28C248.12 28.28 180.17 96.23 180.17 180.06C180.17 263.88 248.12 331.83 331.94 331.83C415.77 331.83 483.72 263.88 483.72 180.06C483.72 96.23 415.77 28.28 331.94 28.28ZM331.94 0C282.23 0 237.21 20.16 204.62 52.74C172.04 85.32 151.88 130.34 151.88 180.06C151.88 187.49 152.34 194.81 153.21 202C150.59 197.93 147.94 193.96 145.23 190.1L145.14 189.97L145.1 189.91L145.05 189.84C133.5 173.4 121.14 159.02 107.55 146.89C101.9 141.83 96.04 137.17 89.94 132.92C89.7 132.72 89.44 132.54 89.17 132.38C65.8 116.24 39.03 106.06 7.32001 102.59C5.57816 102.408 3.835 102.923 2.47235 104.023C1.10971 105.123 0.238643 106.719 0.0499878 108.46L0.019989 109.16L0 197.6C0 201.26 2.96 204.22 6.62 204.22L7.37 204.18C75.18 202.05 113.04 235.02 150.89 267.99C169.49 284.19 188.1 300.39 210.43 312.92C242.45 342.23 285.11 360.12 331.94 360.12C381.66 360.12 426.68 339.96 459.26 307.38C491.84 274.79 512 229.77 512 180.06C512 130.34 491.84 85.32 459.26 52.74C426.68 20.16 381.66 0 331.94 0ZM167.34 253.13C170.57 260.4 174.27 267.42 178.4 274.14C172.04 268.87 165.81 263.44 159.58 258.01C150.03 249.69 140.48 241.37 130.47 233.57L141.15 207.65C149.77 220.94 157.98 235.52 165.96 251.29C166.32 252 166.79 252.62 167.34 253.13ZM223.52 306.4C222.92 305.19 221.95 304.15 220.67 303.48L219.53 302.87C217.72 301.21 215.95 299.52 214.22 297.78C184.09 267.66 165.45 226.03 165.45 180.06C165.45 134.08 184.09 92.46 214.22 62.33C244.34 32.21 285.97 13.57 331.94 13.57C377.92 13.57 419.54 32.21 449.67 62.33C479.79 92.46 498.43 134.08 498.43 180.06C498.43 226.03 479.79 267.66 449.67 297.78C419.54 327.91 377.92 346.54 331.94 346.54C290.53 346.54 252.65 331.42 223.52 306.4ZM119.55 225.42C107.44 216.82 94.47 209.17 79.93 203.26L90.31 149.61C93.18 151.87 96 154.24 98.77 156.71C110.79 167.45 121.85 180.14 132.26 194.61L119.55 225.42ZM67.35 198.73C51.45 193.74 33.68 190.83 13.24 190.89V116.67C38.04 120.34 59.48 128.64 78.5 141.1L67.35 198.73ZM304.07 106.43C308.9 121.84 323.3 133.02 340.31 133.02C354.67 133.02 367.17 125.05 373.63 113.28C361.54 105.72 347.25 101.34 331.94 101.34C322.12 101.34 312.73 103.14 304.07 106.43ZM280.97 120.08C264 134.51 253.23 156.03 253.23 180.06C253.23 181.16 253.25 182.26 253.3 183.35C273.98 183.01 290.63 166.15 290.63 145.39C290.63 135.66 286.98 126.8 280.97 120.08ZM259.78 211.53C269.35 233.46 288.62 250.18 312.17 256.27C313.07 253.02 313.56 249.61 313.56 246.08C313.56 225.1 296.56 208.1 275.58 208.1C269.94 208.1 264.59 209.33 259.78 211.53ZM340.27 258.33C364.64 255.77 385.69 242.09 398.27 222.45C392.221 218.644 385.217 216.629 378.07 216.64C357.09 216.64 340.09 233.64 340.09 254.62C340.09 255.87 340.15 257.11 340.27 258.33ZM407.75 201.3C409.681 194.385 410.657 187.239 410.65 180.06C410.65 161.64 404.33 144.71 393.73 131.3C384.17 138.54 377.99 150 377.99 162.92C377.99 181.4 390.64 196.92 407.75 201.3ZM340.31 50.44C315.69 50.44 295.71 70.44 295.71 95.04C295.71 107.35 300.7 118.51 308.78 126.58C316.84 134.65 328 139.64 340.31 139.64C352.61 139.64 363.75 134.65 371.82 126.58C379.91 118.51 384.91 107.35 384.91 95.04C384.91 82.76 379.91 71.62 371.84 63.53L371.82 63.51C363.72 55.43 352.59 50.44 340.31 50.44ZM252.66 100.79C240.34 100.79 229.19 105.78 221.12 113.85L220.76 114.24C212.9 122.28 208.06 133.27 208.06 145.39C208.06 170.02 228.03 189.98 252.66 189.98C264.97 189.98 276.12 184.99 284.19 176.92C292.26 168.85 297.25 157.69 297.25 145.39C297.25 133.09 292.26 121.95 284.19 113.88C276.12 105.78 264.96 100.79 252.66 100.79ZM275.58 201.48C263.27 201.48 252.11 206.48 244.04 214.54C235.98 222.61 230.98 233.77 230.98 246.08C230.98 258.39 235.98 269.54 244.04 277.61L244.43 277.97C252.48 285.83 263.48 290.68 275.58 290.68C287.86 290.68 299 285.68 307.09 277.61L307.11 277.58C315.19 269.49 320.18 258.36 320.18 246.08C320.18 233.79 315.18 222.64 307.1 214.56C299.04 206.48 287.89 201.48 275.58 201.48ZM378.07 210.02C365.75 210.02 354.6 215.01 346.53 223.08C338.46 231.15 333.47 242.3 333.47 254.62C333.47 266.91 338.46 278.05 346.53 286.13C354.6 294.22 365.75 299.22 378.07 299.22C390.37 299.22 401.53 294.22 409.6 286.15L409.96 285.76C417.82 277.72 422.66 266.73 422.66 254.62C422.66 242.31 417.67 231.15 409.6 223.08C401.53 215.01 390.38 210.02 378.07 210.02ZM417.62 116.67C404.86 116.67 393.29 121.85 384.92 130.22C376.56 138.59 371.37 150.15 371.37 162.92C371.37 175.68 376.56 187.25 384.92 195.62C393.29 203.99 404.86 209.17 417.62 209.17C430.36 209.17 441.92 203.99 450.3 195.62L450.32 195.59C458.7 187.2 463.87 175.65 463.87 162.92C463.87 150.18 458.69 138.62 450.32 130.24L450.3 130.22C441.9 121.84 430.35 116.67 417.62 116.67ZM331.94 161.97C321.95 161.97 313.86 170.07 313.86 180.06C313.86 190.04 321.95 198.14 331.94 198.14C341.93 198.14 350.03 190.04 350.03 180.06C350.03 170.07 341.93 161.97 331.94 161.97Z" fill="black"/>
</g>
<path d="M582.464 345.536C584.417 347.488 587.583 347.488 589.536 345.536L621.355 313.716C623.308 311.763 623.308 308.597 621.355 306.645C619.403 304.692 616.237 304.692 614.284 306.645L586 334.929L557.716 306.645C555.763 304.692 552.597 304.692 550.645 306.645C548.692 308.597 548.692 311.763 550.645 313.716L582.464 345.536ZM581 18V342H591V18H581Z" fill="black"/>
<path d="M589.536 14.4645C587.583 12.5118 584.417 12.5118 582.464 14.4645L550.645 46.2843C548.692 48.2369 548.692 51.4027 550.645 53.3553C552.597 55.308 555.763 55.308 557.716 53.3553L586 25.0711L614.284 53.3553C616.237 55.308 619.403 55.308 621.355 53.3553C623.308 51.4027 623.308 48.2369 621.355 46.2843L589.536 14.4645ZM591 342V18H581V342H591Z" fill="black"/>
<path d="M631 107.455V98.5824H657.182V107.634C657.182 110.233 656.658 112.466 655.609 114.332C654.57 116.207 653.074 117.648 651.122 118.653C649.17 119.659 646.835 120.162 644.116 120.162C641.389 120.162 639.045 119.655 637.085 118.641C635.125 117.635 633.621 116.182 632.572 114.281C631.524 112.389 631 110.114 631 107.455ZM635.104 103.325V107.224C635.104 109.048 635.436 110.57 636.101 111.788C636.774 113.007 637.776 113.923 639.105 114.537C640.443 115.151 642.114 115.457 644.116 115.457C646.119 115.457 647.781 115.151 649.102 114.537C650.432 113.923 651.425 113.016 652.081 111.814C652.746 110.621 653.078 109.138 653.078 107.365V103.325H635.104ZM631 124.464H650.636V129.092H631V124.464ZM653.423 126.79C653.423 126.058 653.666 125.427 654.152 124.898C654.646 124.37 655.239 124.106 655.929 124.106C656.628 124.106 657.22 124.37 657.706 124.898C658.2 125.427 658.447 126.058 658.447 126.79C658.447 127.532 658.2 128.163 657.706 128.683C657.22 129.211 656.628 129.475 655.929 129.475C655.239 129.475 654.646 129.211 654.152 128.683C653.666 128.163 653.423 127.532 653.423 126.79ZM630.604 139.501C630.604 138.257 630.825 137.136 631.268 136.139C631.72 135.15 632.385 134.366 633.263 133.787C634.141 133.216 635.223 132.93 636.51 132.93C637.618 132.93 638.534 133.135 639.259 133.544C639.983 133.953 640.562 134.511 640.997 135.218C641.432 135.926 641.76 136.723 641.982 137.609C642.212 138.504 642.378 139.429 642.48 140.383C642.599 141.534 642.706 142.467 642.8 143.183C642.902 143.899 643.055 144.419 643.26 144.743C643.473 145.075 643.801 145.241 644.244 145.241H644.321C645.284 145.241 646.03 144.956 646.558 144.385C647.087 143.814 647.351 142.991 647.351 141.917C647.351 140.784 647.104 139.885 646.609 139.22C646.115 138.564 645.531 138.12 644.858 137.89L645.472 133.569C646.665 133.91 647.662 134.473 648.463 135.257C649.273 136.041 649.878 137 650.278 138.133C650.688 139.267 650.892 140.52 650.892 141.892C650.892 142.838 650.781 143.779 650.56 144.717C650.338 145.654 649.972 146.511 649.46 147.287C648.957 148.062 648.271 148.684 647.402 149.153C646.533 149.63 645.446 149.869 644.142 149.869H631V145.42H633.697V145.267C633.152 144.985 632.641 144.589 632.163 144.078C631.695 143.575 631.315 142.94 631.026 142.173C630.744 141.414 630.604 140.524 630.604 139.501ZM634.004 140.703C634.004 141.632 634.188 142.437 634.554 143.119C634.929 143.801 635.423 144.325 636.037 144.691C636.651 145.066 637.32 145.254 638.044 145.254H640.358C640.239 145.109 640.128 144.862 640.026 144.512C639.923 144.172 639.834 143.788 639.757 143.362C639.68 142.936 639.612 142.514 639.553 142.096C639.493 141.679 639.442 141.316 639.399 141.01C639.305 140.319 639.152 139.701 638.939 139.156C638.726 138.61 638.428 138.18 638.044 137.865C637.669 137.549 637.183 137.392 636.587 137.392C635.734 137.392 635.091 137.703 634.656 138.325C634.222 138.947 634.004 139.74 634.004 140.703ZM631 154.522H650.636V158.946H647.3V159.176C648.425 159.585 649.303 160.262 649.933 161.208C650.572 162.154 650.892 163.284 650.892 164.596C650.892 165.926 650.568 167.047 649.92 167.958C649.281 168.879 648.408 169.527 647.3 169.902V170.106C648.391 170.541 649.26 171.274 649.908 172.305C650.564 173.345 650.892 174.576 650.892 176C650.892 177.806 650.321 179.281 649.179 180.423C648.037 181.565 646.371 182.136 644.18 182.136H631V177.495H643.464C644.683 177.495 645.574 177.172 646.136 176.524C646.707 175.876 646.993 175.083 646.993 174.146C646.993 173.029 646.643 172.156 645.945 171.525C645.254 170.903 644.355 170.592 643.247 170.592H631V166.054H643.656C644.67 166.054 645.48 165.747 646.085 165.133C646.69 164.528 646.993 163.735 646.993 162.755C646.993 162.091 646.822 161.485 646.482 160.94C646.149 160.395 645.676 159.96 645.062 159.636C644.457 159.312 643.75 159.15 642.94 159.15H631V154.522ZM630.616 195.524C630.616 193.555 631.026 191.855 631.844 190.423C632.67 189 633.838 187.905 635.347 187.138C636.864 186.371 638.649 185.987 640.703 185.987C642.723 185.987 644.496 186.371 646.021 187.138C647.555 187.913 648.749 188.996 649.601 190.385C650.462 191.774 650.892 193.406 650.892 195.281C650.892 196.491 650.696 197.634 650.304 198.707C649.92 199.79 649.324 200.744 648.514 201.571C647.705 202.406 646.673 203.063 645.42 203.54C644.176 204.017 642.693 204.256 640.972 204.256H639.553V188.161H642.672V199.82C643.558 199.811 644.347 199.619 645.037 199.244C645.736 198.869 646.286 198.345 646.686 197.672C647.087 197.007 647.287 196.232 647.287 195.345C647.287 194.399 647.057 193.568 646.597 192.852C646.145 192.136 645.548 191.578 644.807 191.178C644.074 190.786 643.268 190.585 642.391 190.577H639.668C638.526 190.577 637.545 190.786 636.727 191.203C635.918 191.621 635.295 192.205 634.861 192.955C634.435 193.705 634.222 194.582 634.222 195.588C634.222 196.261 634.315 196.871 634.503 197.416C634.699 197.962 634.984 198.435 635.359 198.835C635.734 199.236 636.199 199.538 636.753 199.743L636.267 204.064C635.125 203.791 634.128 203.271 633.276 202.504C632.432 201.746 631.776 200.774 631.307 199.589C630.847 198.405 630.616 197.05 630.616 195.524ZM653.219 193.453L659.061 189.528V194.067L653.219 196.918V193.453ZM650.636 217.976H647.057V206.688H650.636V217.976ZM655.341 209.475V214.103H636.906C636.284 214.103 635.807 214.196 635.474 214.384C635.151 214.58 634.929 214.836 634.81 215.151C634.69 215.466 634.631 215.816 634.631 216.199C634.631 216.489 634.652 216.753 634.695 216.992C634.737 217.239 634.776 217.426 634.81 217.554L631.192 218.334C631.107 218.087 631.013 217.733 630.911 217.273C630.808 216.821 630.749 216.267 630.732 215.611C630.697 214.452 630.872 213.408 631.256 212.479C631.648 211.55 632.253 210.813 633.071 210.267C633.889 209.73 634.912 209.466 636.139 209.475H655.341ZM631 221.847H650.636V226.334H647.364V226.538C648.497 226.896 649.371 227.51 649.984 228.379C650.607 229.257 650.918 230.259 650.918 231.384C650.918 231.639 650.905 231.925 650.879 232.24C650.862 232.564 650.832 232.832 650.79 233.045H646.533C646.601 232.849 646.661 232.538 646.712 232.112C646.771 231.695 646.801 231.29 646.801 230.898C646.801 230.054 646.618 229.295 646.251 228.622C645.893 227.957 645.395 227.433 644.756 227.05C644.116 226.666 643.379 226.474 642.544 226.474H631V221.847ZM630.616 244.005C630.616 242.036 631.026 240.336 631.844 238.904C632.67 237.48 633.838 236.385 635.347 235.618C636.864 234.851 638.649 234.468 640.703 234.468C642.723 234.468 644.496 234.851 646.021 235.618C647.555 236.394 648.749 237.476 649.601 238.865C650.462 240.255 650.892 241.887 650.892 243.762C650.892 244.972 650.696 246.114 650.304 247.188C649.92 248.27 649.324 249.225 648.514 250.051C647.705 250.887 646.673 251.543 645.42 252.02C644.176 252.498 642.693 252.736 640.972 252.736H639.553V236.641H642.672V248.3C643.558 248.292 644.347 248.1 645.037 247.725C645.736 247.35 646.286 246.826 646.686 246.152C647.087 245.488 647.287 244.712 647.287 243.826C647.287 242.88 647.057 242.049 646.597 241.333C646.145 240.617 645.548 240.059 644.807 239.658C644.074 239.266 643.268 239.066 642.391 239.057H639.668C638.526 239.057 637.545 239.266 636.727 239.684C635.918 240.101 635.295 240.685 634.861 241.435C634.435 242.185 634.222 243.063 634.222 244.069C634.222 244.742 634.315 245.351 634.503 245.897C634.699 246.442 634.984 246.915 635.359 247.316C635.734 247.716 636.199 248.019 636.753 248.223L636.267 252.544C635.125 252.272 634.128 251.752 633.276 250.985C632.432 250.226 631.776 249.255 631.307 248.07C630.847 246.885 630.616 245.53 630.616 244.005Z" fill="black"/>
<defs>
<clipPath id="clip0_1_12">
<rect width="512" height="360.12" fill="white" transform="matrix(-1 0 0 1 512 0)"/>
</clipPath>
</defs>
</svg>
